<svg xmlns="http://www.w3.org/2000/svg" style="isolation:isolate" viewBox="0 0 4575 1957"><defs><clipPath id="a"><path d="M0 0h4574.667v1957.333H0z"/></clipPath></defs><g clip-path="url(#a)"><linearGradient id="b" x1="18.976%" y1="88.75%" x2="83.368%" y2="10.639%"><stop offset="0%" stop-color="#ea492c"/><stop offset="0%" stop-color="#ea492c"/><stop offset="0%" stop-color="#e64429"/><stop offset="0%" stop-color="#e8462a"/><stop offset="0%" stop-color="#e64429"/><stop offset="0%" stop-color="#e13f26"/><stop offset="0%" stop-color="#ea492c"/><stop offset="98.261%" stop-color="#d3301d"/></linearGradient><path d="M942.667.933c-48.4 1.734-95.067 7.2-155.334 18.267-14.933 2.667-50.266 11.2-72 17.333-28.533 8-47.066 13.734-62 19.467-5.466 2-15.733 5.867-22.666 8.4-6.934 2.667-17.734 6.933-24 9.6-6.267 2.667-13.067 5.467-15.2 6.267-2.134.8-7.334 3.2-11.334 5.2-4.133 2.133-8 3.866-8.533 3.866-1.333 0-58.667 28.4-59.6 29.467-.4.4-2.8 1.867-5.333 3.2C498.8 126 464 146.667 452 154.533c-6.267 4-12.4 8-13.6 8.8-11.6 7.067-66 46.8-71.467 52.267-.933.8-4.533 3.867-8 6.667-5.466 4.4-23.733 19.866-25.6 21.733-.4.4-5.733 5.2-11.866 10.667-15.734 14-52.134 50.133-65.6 65.333-6.134 6.933-11.867 13.2-12.667 14-.8.667-6.4 7.333-12.533 14.667-6 7.333-12.267 14.8-13.867 16.666-2.933 3.467-8.933 11.334-25.467 33.334-8.4 11.2-22.933 31.733-28.666 40.666-9.334 14.267-25.2 40.4-33.334 54.667-5.466 9.467-10.266 17.6-10.666 18-2 1.867-34.267 69.067-38.8 80.667-1.467 3.6-3.2 7.866-3.867 9.333-3.067 6.933-9.333 22.267-12.667 31.333-2 5.467-5.333 14.534-7.333 20-2.133 5.467-6.267 18.134-9.467 28-3.066 9.867-6.266 20.4-7.2 23.334-.933 2.933-2.4 8.933-3.466 13.333-.934 4.4-2.134 8.533-2.534 9.333-.533.667-1.466 3.467-1.866 6-.534 2.534-3.334 14.534-6.134 26.667-7.6 32.133-14.4 70.4-17.333 96.667-.8 7.333-2 18.4-2.667 24.666-3.6 30.667-4.4 49.867-4.533 94 0 50.8 1.2 72.934 6.667 119.334 3.2 27.866 12.133 81.2 15.866 96 1.067 4 3.467 13.6 5.2 21.333 8.534 36.133 26 91.2 40.934 128.667 6.533 16.266 4.933 12.666 18 42 12.133 27.466 37.333 75.466 52.533 100 .667 1.066 3.2 5.466 5.6 9.6 2.4 4.266 4.8 7.733 5.333 7.733.667 0 1.067.667 1.067 1.467s1.333 3.333 3.067 5.6c1.6 2.4 3.6 5.333 4.266 6.533 12.934 21.867 59.867 83.467 87.334 114.4 21.066 23.867 61.866 64.533 83.6 83.467 5.066 4.266 9.733 8.533 10.4 9.333.8.8 8 6.667 16 13.2 8.133 6.533 15.6 12.667 16.666 13.6 10 8.533 47.467 35.733 64 46.267 5.467 3.6 10.267 6.933 10.4 7.6.267.666 1.067 1.2 1.6 1.2.667 0 6.8 3.466 13.6 7.733 6.8 4.267 18.134 10.933 25.067 14.933s12.933 7.6 13.333 8c2.4 2.534 71.2 36.4 91.334 45.067 56.133 24 127.466 46.933 175.066 56.267 7.067 1.466 18.667 3.733 25.6 5.333 19.334 4.133 64.267 10.4 95.334 13.467 35.6 3.466 108.666 4.8 145.066 2.666 107.6-6.4 205.334-27.866 306.267-67.466 47.6-18.667 108.533-49.2 152-76.4 28.267-17.734 72.4-48.134 85.6-59.2 2-1.734 5.467-4.534 7.867-6.4 6.133-4.667 36.4-29.734 37.2-30.667.4-.4 7.2-6.8 15.333-14.133 17.2-15.6 47.867-46.134 62.133-62 21.734-24 26.134-29.2 43.2-50.534 16.134-20.266 30.934-40.133 42-56.666 2.534-3.734 4.934-6.934 5.334-7.334.533-.4 1.2-1.333 1.466-2 .267-.8 4.134-6.8 8.4-13.333 8-12.133 24.8-39.333 24.8-40.133 0-.267 2.934-5.467 6.667-11.734 6.4-10.8 31.867-60.933 34.533-67.6l1.2-3.2-22.933-3.066c-22.267-3.067-38.533-5.6-89.333-13.734-13.734-2.133-36.934-5.733-51.334-7.866-14.4-2.134-35.733-5.467-47.466-7.334-11.734-1.866-25.2-4-30-4.666-4.8-.667-14.667-2.267-22-3.334-7.334-1.2-22.667-3.6-34-5.333-11.334-1.733-42.267-6.533-68.667-10.667-26.4-4.133-57.333-8.933-68.667-10.666-11.333-1.6-36.266-5.467-55.333-8.534-19.067-2.933-44.267-6.933-56-8.8-11.733-1.733-35.067-5.466-52-8.133-16.8-2.533-40.533-6.133-52.667-8-12.133-1.733-23.733-3.6-25.733-4-2.933-.667-5.2.133-9.6 3.333-3.2 2.267-6.4 4.134-7.2 4.134-.8 0-1.467.533-1.467 1.066 0 2.134-24 12.267-37.333 15.867-12.533 3.467-53.333 3.333-69.333-.133-29.067-6.267-56.267-18.934-77.067-35.867-7.733-6.267-21.333-20.533-25.733-26.933-2.534-3.734-4.934-6.934-5.334-7.334-1.733-1.466-7.733-14.266-9.733-21.2-2.933-9.866-2.8-25.066.267-33.2 8.933-23.2 36.666-45.466 72.133-57.866 21.067-7.334 55.867-10.8 77.867-7.867 29.866 4 63.066 19.067 96.4 43.6 8.933 6.667 9.6 6.933 21.866 8.4 6.934.8 22.534 2.667 34.667 4.133 31.733 4 36.533 4.534 79.333 9.867 21.334 2.667 42.934 5.333 48 6.133 8.267 1.2 304 38.267 330 41.334 5.467.666 53.2 6.666 106.134 13.2 52.8 6.666 97.2 12.133 98.8 12.133 1.733 0 3.2-1.333 4.133-3.733 2.4-6.267 11.2-39.2 14.133-53.6 8.4-39.6 10.4-50.534 14-74 8.534-56.667 11.467-100.8 10.4-161.334-1.066-60.666-4.533-97.333-14.266-153.333-7.334-41.867-15.067-74.667-26.934-113.2l-5.333-17.2-8.8.933c-17.6 1.734-75.467 7.067-110.933 10.134-8.4.8-24.934 2.266-36.667 3.333-25.333 2.4-57.467 5.333-81.333 7.333-9.467.8-26.267 2.4-37.334 3.467-10.933 1.067-33.733 3.067-50.666 4.533-16.8 1.6-43.2 4-58.667 5.334-15.333 1.466-41.733 3.866-58.667 5.333-16.8 1.6-43.2 4-58.666 5.467-15.334 1.466-44.934 4.133-65.467 5.866-20.667 1.734-47.067 4.134-58.667 5.334a41855.948 41855.948 0 01-59.2 5.333c-56.4 4.933-50 3.467-68.533 15.6-43.2 28.4-79.867 39.2-120.8 35.733-39.867-3.6-76.133-19.466-100-43.866-28.4-29.2-26.533-60.534 5.867-96.134 11.333-12.4 36.666-31.066 46.133-34 1.867-.533 4.267-1.733 5.333-2.533 2.267-1.733 13.2-6.133 23.334-9.333 22.933-7.2 60.4-9.6 82.266-5.467 20.267 3.867 33.2 9.467 51.067 21.6l10.667 7.333 50.666-6.266c27.867-3.334 59.334-7.334 70-8.8 10.667-1.334 32.534-4 48.667-5.867 16.133-1.867 38-4.533 48.667-6 10.666-1.467 27.733-3.6 38-4.667 10.266-1.066 25.333-2.933 33.333-4 17.867-2.4 44-5.6 59.333-7.466 6.267-.667 44.667-5.467 85.334-10.534 70.4-8.8 115.866-14 215.333-24.666 24.267-2.667 44.8-5.067 45.733-5.334 1.334-.533 1.334-1.2-.133-3.6-1.067-1.733-6.267-11.333-11.467-21.6-5.333-10.133-11.066-20.8-12.933-23.6-1.733-2.8-3.2-5.466-3.2-5.866 0-.8-18.4-30.934-28.533-46.534-7.6-11.866-35.867-52.133-41.734-59.466-.8-1.067-5.466-6.934-10.133-12.934-11.2-14.133-26.667-32.666-40.667-48.4-14.4-16.133-61.333-62.8-76.933-76.533-6.667-5.733-14-12.267-16.4-14.4-2.4-2.133-12-10-21.333-17.467-15.734-12.666-23.867-18.933-44.934-34.4C1537.2 175.2 1502.667 152 1501.6 152c-.4 0-2.533-1.333-4.8-3.067-2.267-1.6-6.4-4.133-9.067-5.6-2.8-1.466-5.066-3.066-5.066-3.6 0-.666-.667-1.066-1.334-1.066-.8 0-5.866-2.667-11.2-6-5.466-3.334-10.266-6-10.533-6-.267 0-6.533-3.334-13.733-7.467-10.8-6.133-54.534-28-65.2-32.533-1.467-.667-8-3.467-14.667-6.4-12.133-5.334-35.867-14.8-50.667-20.267-6.933-2.533-45.6-15.733-46.4-15.867-.133 0-1.2-.266-2.266-.666C1239.333 34.4 1183.6 21.2 1146 14.8 1077.733 3.333 1008.533-1.467 942.667.933z" fill="url(#b)"/><path d="M2345.333 120.8c-1.866.4-8.533 1.467-14.933 2.533-62.533 10.4-108.667 52.8-123.6 113.334-13.067 53.6-2.267 117.6 28.8 168.933 11.733 19.6 25.067 39.333 28.533 42.4.4.4 11.467 13.6 24.534 29.333 13.066 15.734 25.6 30.8 27.866 33.334 2.267 2.666 6.534 7.6 9.467 11.2 2.933 3.6 6 7.2 6.667 8 .8.8 9.066 10.8 18.666 22.133 9.467 11.333 17.6 20.933 18 21.333 1.867 1.734 21.6 27.067 28 35.867 14.267 20.133 25.467 42.267 29.867 58.933 5.6 21.734 6.133 54.134 1.067 70.134-6.4 20.533-19.467 33.066-39.867 38.4-9.733 2.533-33.6 2.666-41.867.133-22.666-6.933-36.266-22.667-44.4-51.733-4.4-15.467-6.266-32.934-7.2-71.067l-.933-32-41.467-.4c-32.666-.267-41.866 0-42.933 1.467-1.733 2.133-7.867 34.533-9.6 51.6-.667 6.933-1.333 22-1.333 33.466-.134 89.2 46.4 142 134.666 152.534 108.934 13.066 188-36 204.8-127.334 2.934-15.2 3.867-51.066 2-65.6-5.866-44.4-24.933-86.533-62-137.733-5.866-8.133-11.066-14.933-11.466-15.333-.667-.534-34.267-40.934-46.534-55.867-8.266-10.133-25.333-30.667-42.666-51.6-24.534-29.467-36.4-44.133-43.067-53.2-14.267-19.333-23.2-38-26.533-55.333-2.534-13.2-2.267-41.734.533-50.8 6.533-21.467 20.667-34.667 42.133-39.2 41.734-8.8 71.067 12 82 58 4.667 19.6 6.134 35.733 6.134 67.6V362l42.533-.4c39.067-.267 42.667-.533 43.333-2.667 2.267-7.6 9.067-48.666 10.267-62.133 4.267-45.067-4.133-83.733-24.533-114.4-7.334-11.067-20.134-24.667-28.934-30.933-2.533-1.867-5.333-4-6.266-4.667-.8-.8-6.267-3.733-12-6.667-27.6-13.866-49.067-18.666-87.734-19.466-14.666-.267-28.133-.267-30 .133zM3614.133 122c-44.666 6.4-78.4 25.6-103.2 58.667-6.933 9.2-20.8 35.6-24.933 47.333-4.8 13.6-10.133 35.2-13.2 53.333-5.867 34.934-6.4 54.534-5.733 223.334.4 136 .8 159.466 2.666 173.466 8.8 65.067 26.534 109.2 55.867 139.067 15.067 15.467 36.667 28.8 58.4 36.133 22.267 7.467 58.4 10.934 84.533 8.134 60.267-6.667 103.334-36.134 130-89.2 10.667-21.334 18.4-46 23.334-75.467 6.133-35.467 6.4-48 5.866-221.467-.666-156.4-.8-163.466-3.466-182-3.734-25.733-7.067-40.8-13.467-59.733-9.867-29.867-22.8-52.133-40.8-70.267-20.667-21.066-42.933-32.666-75.467-39.333-18.266-3.733-60.8-4.8-80.4-2zm56.667 88.533c10.8 4.134 17.867 9.734 23.867 18.934 10 15.6 15.066 36.666 17.466 73.2 2 31.6.934 390.133-1.333 404.666-6 40.4-18.133 61.467-39.2 68.4-12.667 4.134-34.533 4.134-47.067 0-20.533-6.666-32.533-25.466-38.8-60.533-2.266-12.267-2.4-27.733-2.4-218.533 0-162 .4-207.867 1.734-217.334 6.266-43.466 19.066-63.2 45.733-70.666 10.133-2.8 30.133-1.867 40 1.866zM2634.667 491.333V856h110.666V126.667h-110.666v364.666zM2870.667 491.333V856H2973.6l-.667-192.4c-.533-170.4-.933-199.467-3.466-254.933-1.6-34.534-3.734-75.2-4.8-90.534-2.534-35.866-2.8-32.8 2-32.8 3.066 0 4.133.667 4.666 2.934.4 1.733 2.534 11.2 4.667 21.066 2.267 9.867 5.867 25.2 8 34s6 25.334 8.667 36.667c7.066 30.8 9.333 40.533 16.666 72 13.734 58.8 18.934 81.067 22 94 1.867 7.333 4.134 17.2 5.067 22 1.867 8.533 16.533 71.867 20.267 87.333 6 25.067 11.6 48.8 12.8 54 .666 3.334 3.866 16.534 6.933 29.334L3082 762h69.333l2.934-12c1.733-6.667 3.866-15.867 4.933-20.667 3.2-14.8 6-26.8 9.467-41.333 1.866-7.733 6.666-28.4 10.666-46 4-17.733 7.467-32.933 8-34 .4-1.067 2.667-11.333 5.2-22.667 2.534-11.333 9.734-42.933 16.134-70 6.266-27.2 13.2-57.2 15.333-66.666 2.133-9.6 6.4-27.6 9.333-40 2.934-12.534 6.934-29.334 8.667-37.334 9.067-40.8 19.6-84.133 20.533-85.066.667-.667 2.534-.934 4.267-.667 2.267.267 3.067 1.2 2.933 3.067-2.266 22.533-6.666 104.666-8.533 160.666-.8 23.867-1.733 125.067-2.133 224.934L3258.4 856H3361.333V126.667H3220.4l-3.467 14.266c-2 8-5.466 21.334-7.6 29.734-2.266 8.4-9.2 35.466-15.466 60-6.267 24.533-14.934 58.8-19.334 76-25.066 98.266-29.866 117.333-33.866 137.466-4.4 21.734-9.2 48.8-13.334 75.2-1.066 7.334-2.666 16.934-3.333 21.334-.667 4.4-1.6 10.666-2 14-2 16-3.867 24-5.467 24-1.733 0-1.733-.134-9.2-49.334-5.6-37.066-12.666-76.666-18-100.666-4.266-19.334-29.6-122.934-32.533-133.334-1.067-3.733-4.133-16-6.933-27.333-2.667-11.333-11.6-47.733-19.867-80.667l-14.8-60-72.267-.4-72.266-.266v364.666zM3933.333 491.333V856H4032.4l-.8-150.4c-.933-144.133-2.533-214.133-6.267-254.267-3.066-34.133-5.466-70.266-4.8-71.066.534-.4 1.467-.134 2.134.533 1.2 1.2 17.733 44.533 28.666 75.2 1.734 4.8 4.667 12.8 6.667 18 2 5.067 4.667 12.267 5.867 16 1.333 3.6 4.933 13.6 8.133 22 3.067 8.4 8 21.6 10.8 29.333 2.8 7.734 6.267 17.334 7.867 21.334 1.466 4 4.133 11.2 5.866 16 1.734 4.8 10.8 29.066 20.134 54 18.4 49.6 46.933 126.133 52.666 142 2 5.466 8.667 23.466 14.667 40 6.133 16.533 12 32.533 13.067 35.6l1.866 5.733h90.4V126.667h-98.666V277.6c0 143.333.933 198 4 245.067 1.466 22.933 6.266 79.2 7.333 86.933.533 4 .267 5.067-1.333 5.067-1.067 0-2-.667-2-1.467 0-1.467-9.734-29.067-14-39.867-2-4.8-26.8-73.6-33.734-93.333-2.266-6.267-9.2-25.467-15.6-42.667-6.4-17.2-14.8-40.666-18.8-52-4.133-11.333-9.466-26.266-12-33.2-4.933-13.466-20.4-56.133-26.933-74.8-2.267-6.266-10-27.6-17.333-47.333-7.334-19.867-15.734-43.2-18.8-52-3.067-8.8-8.4-23.867-12-33.333l-6.534-17.334-44.8-.4-44.8-.266v364.666zM2720.667 1172c-84.667 9.6-136 66.667-150.534 168-4.533 30.933-5.066 58-4.4 217.333.534 170 .4 167.6 8.267 206.134 15.333 75.733 53.733 126 109.2 143.066 28.267 8.667 64.933 8.667 88.267 0 22.8-8.533 45.466-28.666 60.4-53.6 4.666-7.866 8.666-14.133 8.933-13.866.533.533 9.867 52.533 9.867 55.2 0 1.333.666 4.666 1.466 7.333l1.334 5.067h73.2v-370l-82.267.666-82.4.667v70.667l28.4.4 28.267.266v57.067c0 31.333-.667 62.267-1.334 68.933-7.2 62.4-30.666 94-69.866 94-39.067-.133-58-22-64.134-74.666-2.933-24.667-2.933-398.934 0-420.8 7.467-56.267 28-78.534 69.734-76.134 31.733 1.867 51.6 27.867 58.133 76.267 1.333 10 2.267 27.6 2.533 46.667l.267 30.666 44.4.4c24.267.134 44.267-.133 44.267-.666 0-.667 1.2-7.467 2.666-15.334 9.6-52.933 9.334-95.466-.8-129.066-6.266-20.8-15.333-36.8-29.333-51.867-11.2-12-19.6-18.267-34.8-26-24.533-12.533-44.4-16.8-81.733-17.467-15.067-.266-32.134 0-38 .667zM3172 1171.467c-1.867.266-7.867 1.2-13.333 2-31.067 4.533-56.934 16.4-82.4 37.866-4.134 3.467-18.667 21.067-23.867 28.667-19.867 29.733-33.333 74.533-37.6 125.733-2 23.067-2 329.2 0 350.267 4.267 47.467 15.6 90 31.467 118.667 12 21.6 32.4 44.666 49.2 55.333 30.266 19.467 66.8 26.933 103.2 21.333 36.666-5.6 63.066-26.266 86.133-67.466 3.6-6.267 4.133-4.8 9.067 23.733 2.666 16 5.333 31.2 5.866 33.733l1.067 4.667 36.267.4 36.266.267v-369.334l-82-.266-82-.4v72.666h57.6l-.666 62.267c-.534 48.933-1.067 65.2-2.8 75.6-7.867 47.6-26.534 74.667-55.734 80.933-9.466 2.134-28 .8-36.933-2.666-22.667-8.534-32.8-25.6-39.733-66.134-1.867-10.266-2.134-38.533-2.667-196-.4-124.4-.133-191.6.8-207.466 2.133-32.534 5.6-50.134 12.933-65.867 8.267-17.467 17.867-25.733 34.667-30 29.2-7.467 52.667 1.2 66.8 24.667 12.4 20.8 17.733 50.533 17.733 99.333v28l44.4-.267 44.267-.4 2.933-16c6.534-35.733 8.667-71.866 5.734-96.666-3.334-26.8-13.2-54.667-25.6-71.867-6.4-8.933-21.334-23.733-29.734-29.467-14.8-10.133-36.533-18.666-60-23.466-10.266-2-62.8-3.867-71.333-2.4zM2228.4 1176.933c-1.333.534-1.733 74.8-1.733 365.2v364.534h274.666V1820l-82-.267-82-.4V1570l61.334-.4 61.333-.267v-86.666h-122.667v-107.2c0-58.934-.4-108.134-.8-109.334-.666-1.866 7.067-2.133 79.6-2.4l80.534-.4.4-40.666c.133-22.4 0-42-.4-43.734L2496 1176l-133.067.133c-73.066 0-133.733.4-134.533.8zM3476.933 1176.933c-.533.4-.933 164.8-.933 365.334v364.4H3750.667V1820h-164v-250.667l61.733-.266 61.6-.4.4-43.067.267-42.933h-124V1264h160v-43.2c0-38.133-.267-43.333-2.134-44-2.8-1.067-266.533-1.067-267.6.133zM3833.067 1176.933c-2.267.534-2.4 19.067-2.4 365.2v364.534h108v-3.734c0-2 .133-63.333.4-136.266l.266-132.667 20.934-.4 20.8-.267 1.6 4.934c1.6 4.933 4.533 12.933 18.533 51.733 3.6 10.267 10.267 28.8 14.667 41.333 8.133 23.2 14.133 40.4 31.466 88.667 5.334 15.067 14.4 40.667 20.267 56.933l10.4 29.734h58.533c46.134 0 58.267-.4 57.734-1.734-1.067-2.533-14.934-37.2-36.134-90.266-10.8-26.8-20.133-49.867-20.8-51.334-1.733-3.733-36-89.466-38.266-96-1.067-2.933-2.8-7.2-3.734-9.333-4.133-8.933-16.666-40.933-16.666-42.533 0-.934 1.6-2.4 3.6-3.334 15.466-7.066 39.066-28.666 50.933-46.533 26.533-39.867 37.067-82.8 38.4-157.733.933-49.734-1.2-73.867-9.067-103.867-7.733-28.667-25.6-60.4-43.2-76.4a573.287 573.287 0 01-7.6-7.067c-7.2-6.666-25.466-18-38.133-23.6-26.133-11.866-55.067-17.466-100.267-19.6-25.866-1.333-135.333-1.6-140.266-.4zm148.266 81.734c40.667 5.066 62.534 20.933 73.2 53.333 5.467 16.533 6.8 32 6.8 84.667 0 64.133-2.133 84.666-11.6 108.533-2 4.8-4 9.067-4.4 9.467-.533.4-1.866 2.4-3.066 4.666-4.534 8.4-16.534 18.934-27.6 24.267-13.734 6.533-27.067 8.933-52 8.933l-23.334.134-.4-146c-.133-80.267 0-146.667.267-147.6.933-2.134 25.733-2.4 42.133-.4zM4230.133 1176.933c-.4.4-.8 20.267-.8 44V1264h117.334v642.667h110.666V1264h117.334v-43.2c0-38.533-.267-43.333-2.134-44-2.933-1.067-341.2-.933-342.4.133z" fill="#403C3B"/></g></svg>
