<svg viewBox="0 0 842 596" xmlns="http://www.w3.org/2000/svg" fill-rule="evenodd" clip-rule="evenodd" stroke-linejoin="round" stroke-miterlimit="2"><path d="M10.939 277.751c0 97.315 78.89 176.206 176.205 176.206 71.069 0 132.268-42.098 160.133-102.696l-8.427-1.197-114.196-17.717c-5.228 3.936-10.999 6.045-20.063 4.757-14.194-2.016-24.315-13.411-23.263-20.812 1.052-7.401 13.945-15.526 28.139-13.509 7.155 1.016 13.828 5.662 18.119 8.925l128.511 16.086a176.156 176.156 0 007.253-50.043 176.03 176.03 0 00-8.427-53.892l-132.987 12.065c-4.396 3.118-11.223 7.537-18.407 8.313-14.255 1.54-26.867-7.014-27.67-14.446-.803-7.432 9.694-18.481 23.948-20.02 9.102-.983 14.8 1.319 19.892 5.428l95.955-11.847 29.698-3.208c-28.7-58.394-88.748-98.599-158.208-98.599-97.315 0-176.205 78.89-176.205 176.206z" fill="url(#_Linear1)" fill-rule="nonzero"/><path d="M408.589 213.5h15.464v6.385c0 14.157 3.231 21.927 12.925 21.927 7.54 0 11.694-4.309 11.694-12.233 0-8.155-1.924-13.079-9.232-22.388l-20.773-24.696c-7.308-9.386-11.54-18.772-11.54-29.62 0-17.464 11.079-29.773 30.235-29.773 23.235 0 30.081 14.54 30.081 27.85 0 5.616-1.076 10.002-2.153 15.694h-15.388v-6.231c0-13.849-3.769-21.619-12.77-21.619-7.463 0-11.156 4.539-11.156 11.463 0 7.463 2.385 11.387 6.232 16.465l23.157 28.004c8.463 11.001 13.079 20.542 13.079 31.851 0 18.618-12.079 30.312-31.312 30.312-23.773 0-30.543-13.848-30.543-27.85 0-5.617.692-10.079 2-15.541" fill="#fff" fill-rule="nonzero"/><path fill="#fff" d="M485.22 124.255h19.926V255.66H485.22z"/><path d="M527.613 124.255h26.004l12.617 50.854c2.693 11.232 4.001 21.619 5.386 30.543h.615c1.385-8.924 2.693-19.311 5.386-30.543l13.002-50.854h25.465V255.66h-18.619v-43.468c0-26.697 1.232-50.008 2.079-59.24h-1.462l-19.85 85.782h-12.617l-20.003-85.782h-1.462c.847 9.232 2.077 32.543 2.077 59.24v43.468h-18.618V124.255zm151.644 96.4v-59.778c0-16.849-3.77-22.08-11.617-22.08-8.078 0-11.848 5.231-11.848 22.08v59.778c0 16.31 3.77 21.157 11.848 21.157 7.847 0 11.617-4.847 11.617-21.157m-44.314-7.771v-46.545c0-39.622 20.387-43.237 32.697-43.237 11.848 0 32.389 3 32.389 43.237v46.545c0 39.006-20.925 43.93-32.389 43.93-12.771 0-32.697-4.462-32.697-43.93m83.94-88.629h16.156l31.852 87.937h.461c-.693-8.155-2.077-19.619-2.077-40.006v-47.931h17.848V255.66h-16.309l-31.698-85.629h-.615c.693 9.309 2.077 20.388 2.077 47.008v38.621h-17.695V124.255zM411.666 313.341h48.7v15.694h-28.774v39.314h22.234v15.695h-22.234v45.007h29.543v15.694h-49.469V313.341zm61.013 88.629v-46.546c0-39.621 21.157-43.237 33.697-43.237 21.312 0 28.851 12.617 28.851 27.85 0 5.617-.77 10.001-1.846 15.695h-15.926V349.5c0-14.386-4.001-21.619-11.617-21.619-8.386 0-12.309 5.232-12.309 22.08v59.548c0 16.311 3.769 21.312 12.155 21.312 8.848 0 12.617-9.772 12.617-22.389v-17.156H508.07v-13.079h29.619v66.548h-13.233l-2.154-12.463c-5.001 9.771-11.31 13.695-20.233 13.695-9.31 0-29.39-4.54-29.39-44.007m80.554 0v-46.546c0-39.621 21.157-43.237 33.697-43.237 21.312 0 28.851 12.617 28.851 27.85 0 5.617-.77 10.001-1.846 15.695h-15.926V349.5c0-14.386-4.001-21.619-11.617-21.619-8.386 0-12.309 5.232-12.309 22.08v59.548c0 16.311 3.769 21.312 12.155 21.312 8.848 0 12.617-9.772 12.617-22.389v-17.156h-10.231v-13.079h29.619v66.548H605.01l-2.154-12.463c-5.001 9.771-11.31 13.695-20.233 13.695-9.31 0-29.39-4.54-29.39-44.007m83.403-88.629h48.7v15.694h-28.774v39.314h22.234v15.695h-22.234v45.007h29.543v15.694h-49.469V313.341zm86.401 67.856c14.002 0 18.926-5.693 18.926-23.389v-10.385c0-13.541-4.385-19.542-18.926-19.542h-3v53.316h3zm-22.542-67.856h21.619c14.848 0 39.852 1.845 39.852 37.544v3.307c0 19.927-5.924 32.467-17.002 38.006l21.08 52.547h-21.08l-17.465-49.161h-7.462v49.161h-19.542V313.341zm92.788 15.694h-21.157v-15.694h62.163v15.694h-21.08v115.71h-19.926v-115.71z" fill="#fff" fill-rule="nonzero"/><defs><linearGradient id="_Linear1" x2="1" gradientUnits="userSpaceOnUse" gradientTransform="rotate(56.034 -118.216 222.218) scale(352.424)"><stop offset="0" stop-color="#fff"/><stop offset="1" stop-color="#fff"/></linearGradient></defs></svg>
